<svg id="svg" version="1.1" xmlns="http://www.w3.org/2000/svg" xmlns:xlink="http://www.w3.org/1999/xlink" width="100%" height="100%"><g id="svgg"><path id="path0" d="M194.273 158.212 C 194.385 158.394,194.319 158.440,194.122 158.318 C 193.198 157.747,190.066 160.869,190.480 161.948 C 190.688 162.490,192.611 162.630,193.477 162.166 C 195.418 161.127,196.957 158.832,196.149 158.179 C 195.647 157.773,194.019 157.802,194.273 158.212 M190.041 165.419 C 189.850 165.650,189.797 165.954,189.925 166.094 C 190.052 166.235,189.979 166.248,189.763 166.124 C 189.116 165.751,187.743 167.557,187.365 169.280 C 187.185 170.097,187.264 170.331,187.813 170.625 C 189.598 171.580,193.174 167.034,191.872 165.465 C 191.392 164.887,190.502 164.864,190.041 165.419 M182.990 167.101 C 180.600 167.710,179.029 171.849,180.757 172.982 C 181.943 173.759,184.499 172.102,184.839 170.336 C 184.913 169.952,185.062 169.361,185.169 169.022 C 185.391 168.323,184.563 166.856,183.977 166.911 C 183.766 166.931,183.322 167.017,182.990 167.101 M188.085 173.972 C 185.831 175.348,185.513 178.624,187.530 179.703 C 188.785 180.375,191.130 176.943,190.460 175.414 C 190.323 175.100,190.198 174.720,190.183 174.569 C 190.108 173.809,188.911 173.468,188.085 173.972 M180.715 176.682 C 179.875 177.648,179.559 179.607,180.080 180.616 C 180.443 181.320,180.833 181.445,182.162 181.285 C 182.773 181.211,183.750 179.107,183.750 177.865 C 183.750 175.915,181.981 175.226,180.715 176.682 M175.302 179.386 C 173.891 180.829,174.115 183.423,175.671 183.678 C 177.243 183.936,178.629 179.807,177.298 178.834 C 176.528 178.271,176.342 178.322,175.302 179.386 M187.188 182.500 C 186.026 183.662,186.689 186.875,188.090 186.875 C 188.816 186.875,189.769 185.664,189.887 184.593 C 190.131 182.383,188.539 181.149,187.188 182.500 M181.597 184.558 C 180.474 185.986,181.051 188.438,182.511 188.438 C 184.153 188.438,184.469 185.176,182.925 184.160 C 182.316 183.759,182.198 183.795,181.597 184.558 M176.925 186.048 C 176.307 186.823,176.272 187.708,176.820 188.730 C 177.887 190.719,179.272 190.081,179.107 187.677 C 179.007 186.230,177.611 185.187,176.925 186.048 M173.185 187.565 C 172.478 188.272,172.732 189.863,173.617 190.266 C 174.635 190.730,175.000 190.504,175.000 189.411 C 175.000 188.305,173.734 187.016,173.185 187.565 M188.804 189.161 C 187.753 190.280,188.360 193.125,189.650 193.125 C 191.226 193.125,191.834 190.345,190.527 189.117 C 189.633 188.277,189.635 188.277,188.804 189.161 M183.448 191.229 C 182.942 192.175,183.056 192.630,184.033 193.566 C 185.006 194.498,186.479 194.486,186.120 193.549 C 186.022 193.293,186.081 193.177,186.254 193.283 C 186.981 193.733,186.476 192.663,185.500 191.688 C 184.281 190.468,183.901 190.383,183.448 191.229 M179.059 192.506 C 178.655 193.261,179.454 194.866,180.349 195.100 C 181.195 195.321,182.007 194.267,181.589 193.488 C 180.722 191.866,179.629 191.442,179.059 192.506 M175.330 193.404 C 174.969 194.079,175.952 195.625,176.741 195.625 C 177.480 195.625,177.418 194.228,176.642 193.359 C 176.017 192.660,175.723 192.670,175.330 193.404 M188.256 195.041 C 188.171 195.178,188.377 195.564,188.713 195.900 C 189.048 196.236,189.241 196.592,189.141 196.693 C 189.040 196.793,189.090 196.875,189.250 196.875 C 189.699 196.875,189.491 199.109,189.015 199.411 C 187.933 200.097,185.193 198.524,185.549 197.422 C 185.591 197.293,185.469 197.188,185.279 197.188 C 185.070 197.188,185.025 197.404,185.165 197.734 C 185.869 199.400,184.917 200.629,183.479 199.911 C 182.586 199.466,182.511 199.474,182.334 200.030 C 182.230 200.357,182.006 200.625,181.835 200.625 C 181.665 200.625,181.612 200.765,181.718 200.936 C 181.977 201.356,183.145 201.965,183.092 201.654 C 182.977 200.965,183.182 200.625,183.712 200.625 C 184.525 200.625,185.092 201.404,184.846 202.181 C 184.240 204.090,196.629 207.260,202.656 206.738 C 206.734 206.385,207.968 206.203,208.266 205.914 C 208.429 205.755,208.800 205.625,209.089 205.625 C 209.379 205.625,210.019 205.415,210.511 205.158 L 211.406 204.691 210.020 204.689 C 205.651 204.683,199.354 201.700,196.005 198.049 C 195.415 197.406,194.803 196.960,194.646 197.057 C 194.488 197.154,194.398 197.097,194.445 196.929 C 194.493 196.762,194.395 196.611,194.229 196.593 C 194.063 196.576,193.923 196.931,193.917 197.383 C 193.890 199.514,191.154 199.136,189.982 196.840 C 189.648 196.185,189.375 195.457,189.375 195.221 C 189.375 194.763,188.514 194.624,188.256 195.041 M184.531 195.938 C 184.320 196.279,184.588 196.875,184.952 196.875 C 185.077 196.875,185.201 196.594,185.227 196.250 C 185.276 195.593,184.860 195.406,184.531 195.938 M195.875 199.125 C 196.081 199.331,196.250 199.383,196.250 199.239 C 196.250 199.096,196.531 199.336,196.875 199.773 C 198.243 201.512,197.387 203.165,195.522 202.386 C 194.919 202.134,194.322 202.022,194.194 202.136 C 194.067 202.250,194.054 202.183,194.167 201.986 C 194.280 201.789,194.169 201.236,193.921 200.758 C 193.412 199.777,193.520 199.450,194.485 199.060 C 195.395 198.693,195.446 198.696,195.875 199.125 M192.109 200.622 C 193.356 201.382,193.519 202.680,192.422 203.105 C 191.132 203.606,189.519 201.993,190.020 200.703 C 190.355 199.839,190.798 199.822,192.109 200.622 M188.757 201.308 C 189.793 202.442,189.566 203.132,188.165 203.115 C 187.045 203.102,186.250 202.432,186.250 201.502 C 186.250 199.963,187.444 199.871,188.757 201.308 M163.880 228.281 C 163.881 231.547,163.927 232.840,163.983 231.156 C 164.039 229.471,164.039 226.799,163.983 225.218 C 163.926 223.637,163.880 225.016,163.880 228.281 M197.947 231.719 C 197.947 235.844,197.992 237.488,198.046 235.373 C 198.100 233.257,198.100 229.882,198.046 227.873 C 197.991 225.863,197.947 227.594,197.947 231.719 M236.070 233.906 C 236.070 237.516,236.116 238.949,236.171 237.092 C 236.226 235.235,236.226 232.282,236.170 230.530 C 236.115 228.778,236.070 230.297,236.070 233.906 M201.992 238.594 C 201.993 240.484,202.044 241.218,202.106 240.223 C 202.168 239.228,202.168 237.682,202.105 236.785 C 202.042 235.889,201.991 236.703,201.992 238.594 " stroke="none" fill="#797070" fill-rule="evenodd"></path><path id="path1" d="M205.942 160.391 C 214.377 174.890,213.867 192.769,204.835 199.135 C 203.138 200.331,203.195 200.423,206.246 201.386 C 221.390 206.170,232.580 191.750,224.582 177.756 C 221.425 172.231,215.869 166.302,209.375 161.526 C 204.770 158.139,204.599 158.082,205.942 160.391 M151.649 219.991 C 150.261 220.838,150.156 221.453,150.156 228.750 C 150.156 236.091,150.354 236.870,152.831 239.298 C 157.140 243.520,164.454 242.314,167.090 236.947 L 167.969 235.156 168.071 227.421 C 168.185 218.809,168.229 218.983,166.104 219.684 C 164.346 220.264,164.235 220.717,164.063 228.027 L 163.906 234.648 163.017 235.576 C 161.373 237.289,157.966 237.548,155.847 236.120 C 154.148 234.975,154.072 234.572,154.067 226.641 L 154.063 219.375 153.359 219.376 C 152.973 219.377,152.203 219.654,151.649 219.991 M199.926 219.864 C 198.081 220.865,198.049 221.077,198.093 232.133 L 198.125 240.048 199.038 240.962 C 199.652 241.575,200.267 241.875,200.913 241.875 L 201.875 241.875 201.875 230.625 C 201.875 218.182,201.978 218.751,199.926 219.864 M214.611 219.818 C 209.447 220.914,207.248 225.337,208.077 232.962 C 208.721 238.887,211.762 241.875,217.149 241.875 C 223.788 241.875,227.529 234.804,225.490 226.110 C 224.346 221.236,219.939 218.687,214.611 219.818 M238.036 219.853 C 233.257 221.607,231.869 224.592,231.882 233.090 C 231.893 239.929,232.312 241.197,234.736 241.729 C 236.067 242.022,236.027 242.250,235.970 234.619 C 235.902 225.415,236.425 224.377,241.126 224.375 C 245.335 224.374,245.925 225.487,245.938 233.438 C 245.948 240.278,246.079 240.824,247.882 241.511 C 250.106 242.357,250.069 242.496,249.950 233.827 L 249.844 226.094 248.965 224.303 C 247.045 220.393,242.076 218.370,238.036 219.853 M180.218 220.118 C 175.160 222.009,174.063 224.367,174.063 233.336 C 174.063 241.116,174.462 242.188,177.358 242.188 L 178.125 242.188 178.125 234.730 C 178.125 225.518,178.539 224.688,183.127 224.688 C 187.238 224.688,187.813 225.757,187.813 233.406 C 187.813 240.927,188.284 242.188,191.097 242.188 L 191.913 242.188 191.816 233.984 L 191.719 225.781 190.866 224.330 C 188.741 220.715,183.824 218.771,180.218 220.118 M220.231 225.201 C 222.490 226.878,222.675 234.677,220.490 236.109 C 218.395 237.481,214.686 237.234,213.067 235.615 C 212.192 234.740,212.188 234.716,212.188 230.618 L 212.188 226.501 213.136 225.614 C 214.659 224.192,218.566 223.965,220.231 225.201 " stroke="none" fill="#363435" fill-rule="evenodd"></path></g></svg>